<?xml version="1.0" standalone="no"?>
<!DOCTYPE svg PUBLIC "-//W3C//DTD SVG 20010904//EN"
 "http://www.w3.org/TR/2001/REC-SVG-20010904/DTD/svg10.dtd">
<svg version="1.0" xmlns="http://www.w3.org/2000/svg"
 width="1280.000000pt" height="1096.000000pt" viewBox="0 0 1280.000000 1096.000000"
 preserveAspectRatio="xMidYMid meet">
<g transform="translate(0.000000,1096.000000) scale(0.100000,-0.100000)"
fill="#000000" stroke="none">
<path d="M9739 10956 c-5 -6 -326 -31 -1354 -106 -231 -17 -600 -44 -820 -60
-220 -16 -589 -43 -820 -60 -231 -17 -600 -44 -820 -60 -220 -16 -650 -48
-955 -70 -305 -22 -735 -54 -955 -70 -220 -16 -587 -43 -815 -60 -228 -16
-631 -46 -895 -65 -264 -20 -536 -45 -604 -56 -754 -125 -1376 -670 -1602
-1404 -34 -111 -58 -233 -80 -396 -22 -173 -22 -192 5 -499 8 -102 29 -374 46
-605 17 -231 44 -600 60 -820 16 -220 52 -713 80 -1095 28 -382 64 -877 80
-1100 16 -223 32 -441 35 -485 19 -263 43 -418 90 -580 97 -335 272 -626 525
-875 165 -162 324 -276 541 -385 58 -30 234 -122 390 -207 385 -207 453 -240
604 -289 72 -23 134 -45 138 -49 4 -4 23 -218 42 -476 19 -258 37 -507 41
-555 l6 -85 234 -212 c128 -117 238 -212 244 -212 6 0 466 348 1023 773 557
425 1017 776 1024 780 6 4 528 25 1160 47 631 21 1283 44 1448 50 165 6 426
15 580 20 154 5 413 14 575 20 162 6 689 24 1170 40 907 31 1017 39 1193 85
355 92 644 260 897 521 118 122 177 196 249 311 150 243 238 489 278 783 21
155 22 261 5 595 -6 132 -16 375 -22 540 -14 421 -48 1396 -60 1735 -5 157
-19 548 -30 870 -40 1160 -41 1178 -91 1380 -62 247 -179 488 -338 695 -25 33
-158 186 -296 340 -137 154 -323 363 -414 465 -356 399 -511 528 -811 674
-208 102 -402 159 -645 192 -125 17 -327 29 -336 20z m457 -280 c636 -134
1144 -589 1344 -1201 55 -169 76 -305 100 -630 11 -154 29 -401 40 -550 11
-148 43 -578 70 -955 27 -377 64 -872 80 -1100 17 -228 44 -597 60 -820 17
-223 37 -502 46 -620 36 -469 -7 -746 -162 -1070 -238 -497 -684 -851 -1224
-973 -113 -26 -205 -36 -635 -67 -231 -17 -600 -44 -820 -60 -220 -16 -589
-43 -820 -60 -231 -17 -600 -44 -820 -60 -220 -16 -587 -43 -815 -60 -228 -16
-660 -48 -960 -70 -300 -22 -675 -49 -835 -61 -248 -18 -294 -24 -317 -40 -15
-10 -381 -311 -813 -669 -433 -357 -791 -650 -796 -650 -18 0 -14 -37 -85 965
-9 127 -19 233 -23 237 -4 4 -103 0 -221 -9 -322 -24 -545 -1 -799 83 -427
142 -810 470 -1015 869 -89 172 -153 366 -180 545 -9 58 -25 227 -36 375 -11
149 -33 459 -50 690 -17 231 -44 600 -60 820 -16 220 -52 713 -80 1095 -28
382 -65 877 -82 1100 -35 451 -42 766 -20 890 50 278 143 514 287 730 243 363
618 627 1043 734 171 44 148 41 1307 126 231 17 600 44 820 60 220 16 585 43
810 59 1000 73 1273 93 1785 131 300 22 732 54 960 70 228 17 595 44 815 60
220 16 589 43 820 60 231 17 497 37 590 45 257 21 538 13 691 -19z"/>
</g>
</svg>
